<?xml version="1.0" standalone="no"?>
<!DOCTYPE svg PUBLIC "-//W3C//DTD SVG 1.1//EN" "http://www.w3.org/Graphics/SVG/1.1/DTD/svg11.dtd" >
<svg xmlns="http://www.w3.org/2000/svg" xmlns:xlink="http://www.w3.org/1999/xlink" version="1.1">
<metadata></metadata>
<defs>
<font id="choplinextralight-demo" horiz-adv-x="1732" >
<font-face units-per-em="2048" ascent="1638" descent="-410" />
<missing-glyph horiz-adv-x="565" />
<glyph unicode="&#xfb01;" horiz-adv-x="1492" d="M20 848v86h283v242q0 175 96 273.5t254 98.5q61 0 116.5 -8.5t86 -17t107.5 -31.5l-19 -78q-66 20 -93.5 27t-80 14.5t-111.5 7.5q-121 0 -192.5 -74.5t-71.5 -211.5v-242h795v-850h207v-84h-506v84h207v764h-703v-764h275v-84h-574v84h207v764h-283z" />
<glyph unicode="&#xfb02;" horiz-adv-x="1452" d="M20 848v86h283v162q0 223 112 337.5t320 114.5q170 0 361 -110h53v-1354h207v-84h-506v84h207v1274q-166 104 -318 104q-173 0 -258.5 -90.5t-85.5 -275.5v-162h393v-86h-393v-764h275v-84h-574v84h207v764h-283z" />
<glyph horiz-adv-x="0" />
<glyph horiz-adv-x="682" />
<glyph unicode=" "  horiz-adv-x="565" />
<glyph unicode="&#x09;" horiz-adv-x="565" />
<glyph unicode="&#xa0;" horiz-adv-x="565" />
<glyph unicode="!" horiz-adv-x="552" d="M201 57q0 31 21.5 52.5t53.5 21.5q31 0 53.5 -21.5t22.5 -52.5q0 -32 -22.5 -52.5t-53.5 -20.5q-32 0 -53.5 20.5t-21.5 52.5zM221 1231v162h111v-162l-21 -879h-69z" />
<glyph unicode="&#x22;" horiz-adv-x="653" d="M123 854v539h94v-539h-94zM436 854v539h94v-539h-94z" />
<glyph unicode="#" horiz-adv-x="1480" d="M94 434v80h252l115 365h-254v77h278l138 439h94l-137 -439h469l137 439h94l-137 -439h243v-77h-268l-114 -365h270v-80h-295l-135 -434h-94l135 434h-469l-135 -434h-95l136 434h-228zM440 514h469l115 365h-469z" />
<glyph unicode="$" horiz-adv-x="1384" d="M166 0v440h92q85 -345 434 -379v617l-100 16q-194 32 -288.5 122t-94.5 228q0 171 131.5 275t347.5 104h4v174h78v-178q269 -24 377 -213v187h86v-361h-90q-33 129 -126 207.5t-247 95.5v-579l129 -21q180 -29 277.5 -121.5t97.5 -236.5q0 -185 -137.5 -296.5 t-366.5 -111.5v-153h-78v157q-155 13 -265 81.5t-169 183.5v-238h-92zM309 1044q0 -213 320 -266l63 -10v571q-174 0 -278.5 -80.5t-104.5 -214.5zM770 57q183 0 295.5 87.5t112.5 228.5q0 106 -76 178t-221 96l-111 19v-609z" />
<glyph unicode="%" horiz-adv-x="2271" d="M221 1042q0 164 108.5 272.5t268.5 108.5q159 0 267 -109t108 -272q0 -165 -108 -274t-267 -109q-161 0 -269 109t-108 274zM297 1042q0 -131 87 -219t212 -88t212 88t87 219t-87 219.5t-212 88.5t-212 -88.5t-87 -219.5zM662 29l901 1384l49 -33l-899 -1386zM1298 352 q0 163 108 272t267 109q160 0 268.5 -108.5t108.5 -272.5q0 -165 -108 -274t-269 -109q-159 0 -267 109t-108 274zM1376 352q0 -131 87 -219t212 -88t212 88t87 219t-87 219t-212 88t-212 -88t-87 -219z" />
<glyph unicode="&#x26;" horiz-adv-x="1595" d="M125 371q0 142 89 245.5t222 149.5q-80 86 -115.5 156t-35.5 153q0 152 105.5 250t271.5 98q100 0 178.5 -38.5t128.5 -110.5v119h86v-320h-86q-21 131 -101 198.5t-198 67.5q-130 0 -210.5 -74.5t-80.5 -193.5q0 -49 19.5 -97.5t39.5 -82.5t83.5 -96.5t98 -92.5 t137.5 -118q19 -17 29 -25l279 -233l135 264h-211v86h510v-86h-205l-164 -320l291 -243v-27h-118l-222 193q-160 -218 -479 -218q-214 0 -345.5 111t-131.5 285zM215 375q0 -138 107.5 -227t283.5 -89q275 0 412 189l-303 264q-138 119 -215 193q-129 -43 -207 -128 t-78 -202z" />
<glyph unicode="'" horiz-adv-x="339" d="M123 854v539h94v-539h-94z" />
<glyph unicode="(" horiz-adv-x="690" d="M143 625q0 551 400 862l57 -62q-184 -155 -274 -346.5t-90 -453.5t90 -454t274 -347l-57 -62q-400 311 -400 863z" />
<glyph unicode=")" horiz-adv-x="690" d="M90 -176q184 155 274.5 347t90.5 454t-90.5 453.5t-274.5 346.5l57 62q400 -311 400 -862q0 -552 -400 -863z" />
<glyph unicode="*" horiz-adv-x="823" d="M119 961l233 139l-233 139l31 53l231 -137v244h61v-246l234 139l31 -53l-236 -139l236 -139l-31 -52l-234 138v-250h-61v250l-231 -138z" />
<glyph unicode="+" horiz-adv-x="1429" d="M254 610v86h416v416h92v-416h418v-86h-418v-413h-92v413h-416z" />
<glyph unicode="," horiz-adv-x="382" d="M90 -303l105 297q-54 16 -54 63q0 31 22.5 52.5t53.5 21.5t53.5 -21.5t22.5 -52.5q0 -18 -23 -77l-112 -283h-68z" />
<glyph unicode="-" horiz-adv-x="1009" d="M176 520h660v90h-660v-90z" />
<glyph unicode="." horiz-adv-x="331" d="M90 57q0 31 22 52.5t54 21.5q31 0 53.5 -21.5t22.5 -52.5q0 -32 -22.5 -52.5t-53.5 -20.5q-33 0 -54.5 20.5t-21.5 52.5z" />
<glyph unicode="/" horiz-adv-x="821" d="M88 -328l557 1823h90l-557 -1823h-90z" />
<glyph unicode="0" horiz-adv-x="1476" d="M117 696q0 214 77 379t219 256.5t326 91.5q278 0 450.5 -201.5t172.5 -525.5t-172.5 -525.5t-450.5 -201.5q-184 0 -326 91.5t-219 256.5t-77 379zM215 696q0 -285 145 -463t379 -178t379.5 178t145.5 463t-145.5 463t-379.5 178t-379 -178t-145 -463z" />
<glyph unicode="1" horiz-adv-x="1026" d="M106 0v84h414v1200l-387 -143v88l430 164h51v-1309h377v-84h-885z" />
<glyph unicode="2" horiz-adv-x="1224" d="M115 1032q0 176 123.5 283.5t322.5 107.5q208 0 332.5 -115.5t124.5 -301.5q0 -139 -78 -260t-266 -297l-379 -365h776v-84h-938v51l469 449q175 165 248.5 273t73.5 231q0 149 -98.5 242t-264.5 93q-158 0 -258 -85t-100 -222h-88z" />
<glyph unicode="3" horiz-adv-x="1236" d="M113 367h94q33 -148 142.5 -231t285.5 -83q178 0 290.5 105t112.5 262q0 151 -105 240.5t-286 89.5l-147 -2l-27 63l475 498h-758v84h897v-66h-2l-473 -496h37q219 0 349 -111t130 -298q0 -195 -137.5 -324t-355.5 -129q-215 0 -351.5 106t-170.5 292z" />
<glyph unicode="4" horiz-adv-x="1314" d="M111 346v57l438 990h96l-422 -965h651v444h93v-444h239v-82h-239v-262h207v-84h-566v84h266v262h-763z" />
<glyph unicode="5" horiz-adv-x="1202" d="M74 367h94q33 -148 142.5 -231t285.5 -83q177 0 290 106.5t113 262.5q0 152 -105.5 244t-285.5 92l-407 -2l2 637h809v-84h-721l-2 -469h321q218 0 349 -114t131 -302q0 -194 -138.5 -324.5t-355.5 -130.5q-218 0 -353 106t-169 292z" />
<glyph unicode="6" horiz-adv-x="1255" d="M125 449q0 154 104 309l482 635h112l-377 -502q96 29 183 29q220 0 362 -130.5t142 -338.5q0 -213 -142.5 -347.5t-361.5 -134.5q-220 0 -362 134t-142 346zM219 444q0 -173 116 -284t294 -111t293.5 111.5t115.5 285.5q0 171 -115.5 281.5t-293.5 110.5 q-197 0 -310 -119l-12 -17q-88 -114 -88 -258z" />
<glyph unicode="7" horiz-adv-x="1069" d="M70 1309v84h915v-64l-2 -2l-606 -1327h-107l602 1309h-802z" />
<glyph unicode="8" horiz-adv-x="1269" d="M125 375q0 129 81.5 221.5t225.5 132.5q-117 39 -184.5 123.5t-67.5 200.5q0 163 129.5 266.5t325.5 103.5q197 0 327 -103.5t130 -266.5q0 -116 -67.5 -200.5t-184.5 -123.5q144 -40 225.5 -132.5t81.5 -221.5q0 -184 -140 -295t-372 -111q-231 0 -370.5 111t-139.5 295 zM225 379q0 -148 112.5 -238t297.5 -90q183 0 296 90t113 238q0 139 -113 225t-296 86q-184 0 -297 -85.5t-113 -225.5zM272 1049q0 -131 103 -212t260 -81q158 0 261 80.5t103 212.5q0 130 -104 213.5t-260 83.5q-155 0 -259 -84t-104 -213z" />
<glyph unicode="9" horiz-adv-x="1255" d="M123 942q0 212 142 346.5t362 134.5t361.5 -133.5t141.5 -345.5q0 -154 -104 -309l-481 -635h-113l377 502q-96 -29 -182 -29q-220 0 -362 130.5t-142 338.5zM217 946q0 -171 116 -281t294 -110q196 0 309 119l12 16q88 114 88 258q0 173 -115.5 284t-293.5 111 t-294 -111.5t-116 -285.5z" />
<glyph unicode=":" horiz-adv-x="331" d="M90 57q0 31 22 52.5t54 21.5q31 0 53.5 -21.5t22.5 -52.5q0 -32 -22.5 -52.5t-53.5 -20.5q-33 0 -54.5 20.5t-21.5 52.5zM90 881q0 31 22 52t54 21q31 0 53.5 -21.5t22.5 -51.5q0 -32 -22.5 -53t-53.5 -21q-32 0 -54 21t-22 53z" />
<glyph unicode=";" horiz-adv-x="350" d="M49 -303l105 297q-54 16 -54 63q0 31 22.5 52.5t53.5 21.5t53.5 -21.5t22.5 -52.5q0 -18 -23 -77l-112 -283h-68zM100 881q0 31 22 52t54 21q31 0 53.5 -21.5t22.5 -51.5q0 -32 -22.5 -53t-53.5 -21q-32 0 -54 21t-22 53z" />
<glyph unicode="&#x3c;" horiz-adv-x="1142" d="M119 569v95l864 421v-96l-764 -373l764 -374v-95z" />
<glyph unicode="=" horiz-adv-x="1492" d="M254 430v86h987v-86h-987zM254 823v88h987v-88h-987z" />
<glyph unicode="&#x3e;" horiz-adv-x="1142" d="M160 147v95l764 374l-764 373v96l864 -421v-95z" />
<glyph unicode="?" horiz-adv-x="1196" d="M129 1087q28 151 144 242.5t276 91.5q195 0 322.5 -122t127.5 -302q0 -176 -121 -293t-315 -120l-2 -215h-82l-10 284h74q160 0 263 99t103 245q0 143 -101 242.5t-255 99.5q-119 0 -212.5 -70t-117.5 -182h-94zM446 57q0 31 22 52.5t54 21.5q31 0 53.5 -21.5t22.5 -52.5 q0 -32 -22.5 -52.5t-53.5 -20.5q-33 0 -54.5 20.5t-21.5 52.5z" />
<glyph unicode="@" horiz-adv-x="2019" d="M172 483q0 171 67.5 324t181 260.5t268 170t323.5 62.5q171 0 326 -63t267 -169.5t178 -255t66 -312.5q0 -118 -33 -210.5t-106 -150t-178 -57.5q-171 0 -223 143q-116 -155 -316 -155q-165 0 -278 112t-113 285t114 284t283 111q26 0 54 -2.5t50 -5.5t51.5 -9.5 t45.5 -10.5t47 -14t41 -13t41.5 -14t36.5 -13v-383q0 -119 38.5 -180t127.5 -61q113 0 176.5 94.5t63.5 247.5q0 197 -103 365t-278 266t-379 98q-152 0 -292 -58t-243 -156.5t-164 -237t-61 -292.5q0 -155 61.5 -293.5t164.5 -236.5t242 -155.5t290 -57.5q136 0 262.5 45 t228.5 129l45 -64q-227 -184 -534 -184q-228 0 -420 105.5t-306 294t-114 417.5zM690 467q0 -142 92 -231t224 -89q85 0 158 41t124 117q-6 49 -6 105v315q-160 59 -276 59q-133 0 -224.5 -88t-91.5 -229z" />
<glyph unicode="A" d="M35 0v84h170l573 1225h-270v84h403l613 -1309h174v-84h-557v84h280l-184 397h-745l-185 -397h277v-84h-549zM530 563h668l-334 719z" />
<glyph unicode="B" horiz-adv-x="1517" d="M117 0v84h227v1225h-227v84h768q202 0 323 -94t121 -248q0 -124 -67 -209.5t-193 -118.5q165 -29 251.5 -118t86.5 -224q0 -172 -141 -276.5t-373 -104.5h-776zM438 84h453q191 0 305.5 83.5t114.5 219.5q0 135 -108 208t-308 73h-457v-584zM438 754h412q187 0 286 74.5 t99 211.5q0 122 -95.5 195.5t-258.5 73.5h-443v-555z" />
<glyph unicode="C" horiz-adv-x="1638" d="M117 696q0 149 57.5 284t155 231.5t231.5 153t281 56.5q188 0 337.5 -78t229.5 -215v265h92v-463h-94q-46 180 -198 289.5t-363 109.5q-173 0 -318.5 -84t-229 -229.5t-83.5 -319.5t83.5 -319.5t229 -229.5t318.5 -84q210 0 360.5 109.5t196.5 290.5h100 q-52 -219 -230.5 -355.5t-426.5 -136.5q-148 0 -282.5 56.5t-232.5 153t-156 231.5t-58 284z" />
<glyph unicode="D" horiz-adv-x="1654" d="M117 0v84h227v1225h-227v84h694q214 0 379.5 -86t256.5 -242t91 -358q0 -156 -53 -287.5t-148 -224t-230.5 -144t-295.5 -51.5h-694zM438 88h373q280 0 454.5 171.5t174.5 447.5q0 175 -79 311t-222.5 211.5t-327.5 75.5h-373v-1217z" />
<glyph unicode="E" horiz-adv-x="1421" d="M117 0v84h227v1225h-227v84h1175v-88h-2v-285h-88v285h-764v-568h611v-86h-611v-563h764v285h88v-285h2v-88h-1175z" />
<glyph unicode="F" horiz-adv-x="1388" d="M117 0v84h227v1225h-227v84h1161v-88h-2v-285h-88v285h-750v-600h639v-87h-639v-534h244v-84h-565z" />
<glyph unicode="G" horiz-adv-x="1705" d="M117 696q0 149 60 284t160.5 231.5t237 153t283.5 56.5q189 0 337.5 -78.5t227.5 -214.5v265h93v-459h-93q-48 177 -200 286t-363 109q-173 0 -321 -83.5t-236 -230t-88 -319.5t81.5 -318t225 -230t316.5 -85q161 0 290 75.5t203.5 204t89.5 288.5h-577v82h669v-713h-81 l-5 348q-80 -174 -234.5 -275.5t-358.5 -101.5q-149 0 -282.5 57.5t-228.5 154.5t-150.5 231t-55.5 282z" />
<glyph unicode="H" horiz-adv-x="1798" d="M117 0v84h227v1225h-227v84h551v-84h-230v-574h920v574h-228v84h551v-84h-229v-1225h229v-84h-551v84h228v565h-920v-565h230v-84h-551z" />
<glyph unicode="I" horiz-adv-x="784" d="M117 0v84h227v1225h-227v84h551v-84h-230v-1225h230v-84h-551z" />
<glyph unicode="J" horiz-adv-x="1404" d="M94 494h96q0 -197 118.5 -317t314.5 -120q191 0 306 120t115 317v815h-503v84h837v-84h-237v-815q0 -236 -144.5 -380.5t-380.5 -144.5t-379 144t-143 381z" />
<glyph unicode="K" horiz-adv-x="1720" d="M117 0v84h229v1225h-229v84h553v-84h-230v-793l817 793h-266v84h576v-84h-193l-561 -551l582 -674h280v-84h-643v84h242l-531 606l-303 -297v-309h230v-84h-553z" />
<glyph unicode="L" horiz-adv-x="1398" d="M117 0v84h227v1225h-227v84h649v-84h-328v-1223h738v287h94v-373h-1153z" />
<glyph unicode="M" horiz-adv-x="2029" d="M117 0v84h233v1225h-217v84h293l590 -979l590 979h307v-84h-232v-1225h232v-84h-561v84h233l2 1112l-534 -895h-76l-535 895l4 -1112h232v-84h-561z" />
<glyph unicode="N" horiz-adv-x="1787" d="M117 0v84h227v1225h-227v84h311l977 -1243v1159h-227v84h551v-84h-230v-1309h-90l-971 1235v-1151h230v-84h-551z" />
<glyph unicode="O" horiz-adv-x="1683" d="M117 696q0 197 97 364t264 264t364 97t364 -97t264 -264t97 -364t-97 -364t-264 -264t-364 -97t-364 97t-264 264t-97 364zM213 696q0 -129 49.5 -246.5t133.5 -202.5t200.5 -135.5t245.5 -50.5q172 0 316.5 85t228 231.5t83.5 318.5t-83.5 318.5t-228 231.5t-316.5 85 q-129 0 -245.5 -50.5t-200.5 -135.5t-133.5 -202.5t-49.5 -246.5z" />
<glyph unicode="P" horiz-adv-x="1409" d="M117 0v84h227v1225h-227v84h694q236 0 381 -124t145 -327q0 -206 -146.5 -331.5t-387.5 -125.5h-365v-401h287v-84h-608zM438 573h371q195 0 313.5 101.5t118.5 267.5q0 163 -118.5 263t-313.5 100h-371v-732z" />
<glyph unicode="Q" horiz-adv-x="1683" d="M117 696q0 197 97 364t264 264t364 97t364 -97t264 -264t97 -364t-97 -364t-264 -264t-364 -97t-364 97t-264 264t-97 364zM213 696q0 -129 49.5 -246.5t133.5 -202.5t200.5 -135.5t245.5 -50.5q172 0 316.5 85t228 231.5t83.5 318.5t-83.5 318.5t-228 231.5t-316.5 85 q-129 0 -245.5 -50.5t-200.5 -135.5t-133.5 -202.5t-49.5 -246.5zM887 -162l14 70l653 -203l-18 -92q-265 80 -649 225z" />
<glyph unicode="R" horiz-adv-x="1576" d="M117 0v84h227v1225h-227v84h714q237 0 379 -116.5t142 -315.5q0 -186 -125 -298t-338 -126l387 -453h280v-84h-397v82l-385 453h-336v-451h234v-84h-555zM438 616h393q194 0 310 92.5t116 252.5q0 161 -116 252.5t-310 91.5h-393v-689z" />
<glyph unicode="S" horiz-adv-x="1421" d="M166 0v440h92q95 -383 512 -383q183 0 295.5 87.5t112.5 228.5q0 106 -76 178t-221 96l-289 47q-194 32 -288.5 122t-94.5 228q0 171 131.5 275t347.5 104q167 0 283 -56.5t176 -160.5v187h86v-361h-90q-38 144 -150.5 225.5t-300.5 81.5q-174 0 -278.5 -80.5 t-104.5 -214.5q0 -213 320 -266l270 -43q180 -29 277.5 -121.5t97.5 -236.5q0 -185 -137.5 -296.5t-364.5 -111.5q-186 0 -316.5 69.5t-197.5 199.5v-238h-92z" />
<glyph unicode="T" horiz-adv-x="1402" d="M94 1020v373h1217v-88h-2v-285h-88v285h-473v-1221h276v-84h-643v84h272v1221h-471v-285h-88z" />
<glyph unicode="U" horiz-adv-x="1679" d="M31 1309v84h551v-84h-230v-731q0 -146 60 -264.5t172.5 -187.5t255.5 -69q215 0 350 149t135 372v731h-227v84h551v-84h-230v-731q0 -265 -160.5 -437t-418.5 -172q-172 0 -305 79t-205 217.5t-72 312.5v731h-227z" />
<glyph unicode="V" horiz-adv-x="1773" d="M31 1309v84h573v-84h-272l555 -1196l555 1196h-273v84h574v-84h-193l-616 -1319h-94l-617 1319h-192z" />
<glyph unicode="W" horiz-adv-x="2392" d="M31 1309v84h565v-84h-262l399 -1180l422 1264h84l420 -1262l399 1178h-260v84h565v-84h-204l-453 -1317v-2h-94l-416 1237l-416 -1237h-92l-455 1319h-202z" />
<glyph unicode="X" horiz-adv-x="1712" d="M92 0v84h205l498 608l-482 617h-221v84h567v-84h-225l422 -543l420 543h-225v84h567v-84h-221l-482 -617l498 -608h207v-84h-567v84h245l-442 539l-444 -539h247v-84h-567z" />
<glyph unicode="Y" horiz-adv-x="1654" d="M31 1309v84h571v-84h-250l475 -709l473 709h-247v84h571v-84h-213l-534 -797v-428h229v-84h-559v84h231v428h-2l-534 797h-211z" />
<glyph unicode="Z" horiz-adv-x="1253" d="M78 0v55l958 1252h-841v-287h-93v373h1072v-56l-5 -2l-956 -1249h870v287h91v-373h-1096z" />
<glyph unicode="[" horiz-adv-x="684" d="M209 -238v1733h366v-88h-274v-1559h274v-86h-366z" />
<glyph unicode="\" horiz-adv-x="821" d="M86 1495h90l557 -1823h-90z" />
<glyph unicode="]" horiz-adv-x="645" d="M70 -152h274v1559h-274v88h366v-1733h-366v86z" />
<glyph unicode="^" horiz-adv-x="786" d="M74 918l278 475h82l279 -475h-88l-232 401l-231 -401h-88z" />
<glyph unicode="_" horiz-adv-x="1349" d="M94 -293h1163v-82h-1163v82z" />
<glyph unicode="`" d="M205 92l604 604l-604 602l51 52l604 -602l602 602l51 -52l-602 -602l602 -604l-51 -51l-602 604l-604 -604z" />
<glyph unicode="a" horiz-adv-x="1376" d="M111 467q0 134 65.5 247.5t178.5 180t247 66.5q219 0 365 -156v129h299v-86h-207v-764h207v-84h-299v127q-146 -156 -365 -156q-134 0 -247 66.5t-178.5 180.5t-65.5 249zM203 467q0 -170 119 -292t288 -122q214 0 357 185v456q-143 185 -357 185q-169 0 -288 -121 t-119 -291z" />
<glyph unicode="b" horiz-adv-x="1376" d="M113 0v84h206v1286h-206v84h299v-649q145 158 366 158q133 0 246 -66.5t178.5 -180.5t65.5 -249q0 -204 -144 -349t-346 -145q-220 0 -366 156v-129h-299zM412 240q140 -185 356 -185q171 0 289.5 121t118.5 291q0 111 -53.5 206t-148 151.5t-206.5 56.5 q-217 0 -356 -187v-454z" />
<glyph unicode="c" horiz-adv-x="1159" d="M111 467q0 207 142 350.5t355 143.5q114 0 207 -44.5t148 -123.5v141h86v-295h-93q-28 107 -123 172.5t-221 65.5q-175 0 -292 -119.5t-117 -290.5q0 -172 117.5 -291t297.5 -119q126 0 218 64.5t118 171.5h97q-32 -148 -150 -234t-285 -86q-219 0 -362 142.5t-143 351.5 z" />
<glyph unicode="d" horiz-adv-x="1361" d="M111 467q0 135 65.5 249t178.5 180.5t247 66.5q220 0 365 -158v565h-209v84h301v-1370h205v-84h-297v129q-146 -156 -365 -156q-134 0 -247 66.5t-178.5 180t-65.5 247.5zM203 467q0 -170 119 -291t288 -121q213 0 357 183v456q-142 187 -357 187q-169 0 -288 -122 t-119 -292z" />
<glyph unicode="e" horiz-adv-x="1169" d="M111 467q0 135 64.5 248.5t177 179.5t247.5 66q201 0 330 -140.5t131 -355.5v-33l-14 4v-4h-844q11 -161 123.5 -270t285.5 -109q107 0 194 46.5t124 123.5h100q-43 -114 -157.5 -183t-262.5 -69q-143 0 -258 66.5t-178 180t-63 249.5zM203 508h768q-12 163 -114 269 t-257 106q-158 0 -270.5 -109t-126.5 -266z" />
<glyph unicode="f" horiz-adv-x="798" d="M20 848v86h283v283q0 150 84.5 240.5t224.5 90.5q83 0 181 -26l-17 -76q-88 20 -153 20q-103 0 -165.5 -67t-62.5 -182v-283h393v-86h-393v-764h275v-84h-574v84h207v764h-283z" />
<glyph unicode="g" horiz-adv-x="1363" d="M111 467q0 135 61.5 248t171.5 179.5t244 66.5q113 0 211.5 -42t169.5 -118v133h299v-86h-207v-940h-2q0 -196 -128.5 -316t-334.5 -120q-176 0 -299 89.5t-152 235.5h97q25 -108 121 -174.5t233 -66.5q166 0 269.5 97t103.5 255v223q-71 -76 -169.5 -118t-211.5 -42 q-134 0 -244 66.5t-171.5 180t-61.5 249.5zM203 467q0 -172 111.5 -293t281.5 -121q110 0 209.5 52.5t163.5 146.5v428q-64 94 -163.5 146.5t-209.5 52.5q-170 0 -281.5 -120t-111.5 -292z" />
<glyph unicode="h" horiz-adv-x="1427" d="M113 0v84h206v1286h-206v84h299v-647q67 75 163.5 116.5t208.5 41.5q175 0 283.5 -111.5t108.5 -302.5v-467h208v-84h-505v84h206v465q0 155 -86 243.5t-227 88.5q-106 0 -202.5 -50.5t-157.5 -140.5v-606h206v-84h-505z" />
<glyph unicode="i" horiz-adv-x="714" d="M113 0v84h206v764h-206v86h299v-850h206v-84h-505zM289 1290q0 32 22 53t54 21q31 0 53 -21t22 -53t-22 -52.5t-53 -20.5q-33 0 -54.5 20.5t-21.5 52.5z" />
<glyph unicode="j" horiz-adv-x="552" d="M49 848v86h344v-1090q0 -188 -66 -270.5t-229 -97.5l-22 78q125 12 175 75t50 209v1010h-252zM270 1290q0 32 22 53t54 21t54 -21t22 -53t-21.5 -52.5t-54.5 -20.5t-54.5 20.5t-21.5 52.5z" />
<glyph unicode="k" horiz-adv-x="1370" d="M113 0v84h206v1286h-206v84h299v-1055l528 455v80h297v-86h-186l-344 -297l448 -467h199v-84h-301v59l-416 430l-225 -194v-211h213v-84h-512z" />
<glyph unicode="l" horiz-adv-x="714" d="M113 0v84h206v1286h-206v84h299v-1370h206v-84h-505z" />
<glyph unicode="m" horiz-adv-x="2088" d="M113 0v84h206v764h-206v86h299v-125q130 156 342 156q112 0 196.5 -51.5t128.5 -145.5q139 197 389 197q167 0 268 -111t101 -303v-467h207v-84h-506v84h209v465q0 157 -77.5 244.5t-213.5 87.5q-107 0 -196.5 -53.5t-147.5 -153.5q12 -58 12 -123v-467h207v-84h-506v84 h207v465q0 157 -77.5 244.5t-213.5 87.5q-101 0 -187 -49t-142 -140v-608h206v-84h-505z" />
<glyph unicode="n" horiz-adv-x="1427" d="M113 0v84h206v764h-206v86h299v-127q67 75 163.5 116.5t208.5 41.5q175 0 283.5 -111.5t108.5 -302.5v-467h208v-84h-505v84h206v465q0 155 -86 243.5t-227 88.5q-106 0 -202.5 -50.5t-157.5 -140.5v-606h206v-84h-505z" />
<glyph unicode="o" horiz-adv-x="1216" d="M111 467q0 207 145 350.5t354 143.5q136 0 250.5 -65.5t181 -179t66.5 -249.5q0 -137 -66.5 -251.5t-181 -180.5t-250.5 -66q-209 0 -354 144.5t-145 353.5zM203 467q0 -171 118.5 -292.5t288.5 -121.5q168 0 286 121.5t118 292.5q0 169 -118 289.5t-286 120.5 q-170 0 -288.5 -120.5t-118.5 -289.5z" />
<glyph unicode="p" horiz-adv-x="1376" d="M113 -375h206v1223h-206v86h299v-129q146 156 366 156q202 0 346 -145t144 -349q0 -135 -65.5 -249t-178.5 -180.5t-246 -66.5q-220 0 -366 156v-502h301v-84h-600v84zM412 240q139 -187 356 -187q112 0 206.5 56.5t148 151.5t53.5 206q0 170 -118.5 291t-289.5 121 q-217 0 -356 -187v-452z" />
<glyph unicode="q" horiz-adv-x="1361" d="M111 467q0 134 65.5 247.5t178.5 180t247 66.5q219 0 365 -156v129h297v-86h-205v-1223h207v-84h-600v84h301v502q-146 -156 -365 -156q-134 0 -247 66.5t-178.5 180.5t-65.5 249zM203 467q0 -170 119 -292t288 -122q214 0 357 185v456q-143 185 -357 185 q-169 0 -288 -121t-119 -291z" />
<glyph unicode="r" horiz-adv-x="870" d="M113 0v84h206v764h-206v86h299v-141q80 66 191.5 108.5t244.5 42.5v-90q-240 -2 -436 -143v-627h305v-84h-604z" />
<glyph unicode="s" horiz-adv-x="1101" d="M131 0v276h86q117 -229 387 -229q136 0 206.5 53t70.5 144q0 73 -53.5 118.5t-141.5 57.5l-225 35q-297 45 -297 247q0 122 96.5 192.5t263.5 70.5q242 0 338 -150v119h86v-260h-86q-42 107 -120 161t-212 54q-132 0 -202 -50t-70 -132q0 -68 50.5 -110t162.5 -60 l215 -33q52 -8 98.5 -24t91 -44.5t71 -77.5t26.5 -112q0 -128 -96 -202.5t-267 -74.5q-259 0 -393 168v-137h-86z" />
<glyph unicode="t" horiz-adv-x="892" d="M55 848v86h275v336h92v-336h352v-86h-352v-522q0 -146 52 -208.5t171 -62.5q65 0 158 21l16 -78q-110 -29 -184 -29q-158 0 -231.5 85.5t-73.5 271.5v522h-275z" />
<glyph unicode="u" horiz-adv-x="1419" d="M55 848v86h299v-549q0 -155 86.5 -243.5t225.5 -88.5q107 0 204 50.5t158 140.5v604h-207v86h299v-850h207v-84h-299v129q-67 -76 -164 -118t-211 -42q-174 0 -282.5 111.5t-108.5 302.5v465h-207z" />
<glyph unicode="v" horiz-adv-x="1265" d="M29 848v86h426v-86h-185l363 -739l360 739h-184v86h426v-86h-139l-416 -848h-96l-416 848h-139z" />
<glyph unicode="w" horiz-adv-x="1701" d="M29 848v86h413v-86h-174l273 -721l272 807h76l272 -809l273 723h-174v86h413v-86h-145l-326 -848h-84l-266 797l-268 -797h-84l-326 848h-145z" />
<glyph unicode="x" horiz-adv-x="1290" d="M74 0v84h170l342 383l-332 381h-180v86h440v-86h-145l276 -320l277 320h-146v86h441v-86h-179l-331 -383l340 -381h170v-84h-441v84h156l-285 315l-289 -315h156v-84h-440z" />
<glyph unicode="y" horiz-adv-x="1331" d="M29 848v86h426v-86h-162l387 -793l381 793h-184v86h426v-86h-140l-583 -1223h206v-84h-573v84h262l154 324l-441 899h-159z" />
<glyph unicode="z" horiz-adv-x="1017" d="M98 0v61l697 793h-586v-192h-88v272h799v-66l-697 -788h613v196h88v-276h-826z" />
<glyph unicode="{" horiz-adv-x="731" d="M86 596v82q121 0 172 58.5t51 201.5v240q0 157 86.5 252.5t227.5 95.5v-88q-101 0 -162.5 -71.5t-61.5 -188.5v-242q0 -130 -33.5 -200t-113.5 -99q80 -29 113.5 -99.5t33.5 -199.5v-242q0 -118 61.5 -189t162.5 -71v-88q-141 0 -227.5 95t-86.5 253v240q0 143 -51 201.5 t-172 58.5z" />
<glyph unicode="|" horiz-adv-x="626" d="M268 -328v1823h88v-1823h-88z" />
<glyph unicode="}" horiz-adv-x="737" d="M115 -164q101 0 162 71t61 189v242q0 129 33.5 199.5t113.5 99.5q-80 29 -113.5 99t-33.5 200v242q0 117 -61 188.5t-162 71.5v88q141 0 227 -95.5t86 -252.5v-240q0 -143 51 -201.5t172 -58.5v-82q-121 0 -172 -58.5t-51 -201.5v-240q0 -158 -86 -253t-227 -95v88z" />
<glyph unicode="~" horiz-adv-x="952" d="M125 643q0 58 21 100.5t54.5 63.5t73.5 28.5t79 -0.5t69 -28l139 -96q28 -18 60.5 -22t60 6t45.5 37.5t18 68.5h82q0 -72 -32 -120.5t-78.5 -64.5t-97 -11.5t-89.5 30.5l-139 96q-28 18 -60 22.5t-59.5 -5.5t-46 -37t-18.5 -68h-82z" />
<glyph unicode="&#xa1;" horiz-adv-x="552" d="M201 889q0 32 21.5 53t53.5 21q31 0 53.5 -21t22.5 -53q0 -31 -22.5 -52.5t-53.5 -21.5q-32 0 -53.5 21.5t-21.5 52.5zM221 -285l21 879h69l21 -879v-161h-111v161z" />
<glyph unicode="&#xa2;" horiz-adv-x="1155" d="M111 467q0 191 123 329t313 160v177h67v-172q112 -1 204 -46t145 -122v141h86v-295h-93q-28 107 -122 172.5t-220 65.5v-820h4q126 0 218 64.5t118 171.5h97q-32 -148 -150 -234t-285 -86h-2v-157h-67v161q-193 23 -314.5 161t-121.5 329zM203 467q0 -153 95.5 -267 t248.5 -137v809q-151 -23 -247.5 -137t-96.5 -268z" />
<glyph unicode="&#xa3;" horiz-adv-x="1306" d="M102 0v63q97 122 132.5 247t37.5 278h-170v82h166q-3 32 -22 134.5t-19 158.5q0 207 128 333.5t339 126.5h2q193 0 315.5 -107.5t141.5 -289.5h-92q-19 144 -116.5 228.5t-248.5 84.5q-171 0 -274 -101t-103 -271q0 -58 20 -161.5t23 -135.5h512v-82h-509 q-3 -148 -36.5 -269.5t-121.5 -236.5h885v283h94v-365h-1084z" />
<glyph unicode="&#xa5;" horiz-adv-x="1609" d="M31 1309v84h571v-84h-250l475 -709l473 709h-247v84h571v-84h-213l-530 -791h358v-65h-362v-117h362v-64h-362v-188h229v-84h-559v84h231v188h-409v64h409v117h-409v65h403l-530 791h-211z" />
<glyph unicode="&#xa6;" horiz-adv-x="626" d="M268 -328v807h88v-807h-88zM268 688v807h88v-807h-88z" />
<glyph unicode="&#xa7;" horiz-adv-x="1105" d="M94 635q0 98 59.5 162.5t151.5 89.5q-60 45 -90.5 98t-30.5 125q0 139 98.5 221t247.5 82q199 0 301 -143v123h87v-306h-87q-20 113 -98.5 177.5t-193.5 64.5q-111 0 -185.5 -59t-74.5 -162q0 -83 56.5 -134.5t207.5 -121.5l198 -94q142 -67 206.5 -137t64.5 -168 q0 -97 -59 -161t-150 -91q119 -88 119 -224q0 -139 -99.5 -220t-257.5 -81q-213 0 -327 148v-127h-86v303h88q22 -113 104.5 -176.5t208.5 -63.5q122 0 198 58t76 162q0 84 -56.5 136t-205.5 122l-200 94q-141 65 -206 135t-65 168zM188 633q0 -67 49.5 -119.5t170.5 -110.5 l192 -90q19 -9 55.5 -26.5t51.5 -24.5q91 8 152 58t61 135q0 68 -50.5 120t-171.5 109l-192 92q-59 26 -103 51q-94 -6 -154.5 -56t-60.5 -138z" />
<glyph unicode="&#xa8;" horiz-adv-x="1228" d="M358 1294q0 31 22.5 52.5t53.5 21.5t53.5 -21.5t22.5 -52.5q0 -32 -22.5 -53.5t-53.5 -21.5t-53.5 21.5t-22.5 53.5zM719 1294q0 31 22.5 52.5t53.5 21.5t53 -21.5t22 -52.5q0 -32 -22 -53.5t-53 -21.5t-53.5 21.5t-22.5 53.5z" />
<glyph unicode="&#xa9;" horiz-adv-x="1779" d="M143 696q0 203 101.5 371t272.5 262t372 94q150 0 287 -55.5t238 -151.5t160.5 -231.5t59.5 -288.5t-59.5 -288.5t-160.5 -231.5t-238 -151.5t-287 -55.5q-201 0 -372 94t-272.5 262t-101.5 371zM211 696q0 -138 55 -262.5t147 -212t216.5 -139t259.5 -51.5t260 51.5 t217.5 139t147.5 212t55 262.5q0 184 -93.5 338t-249.5 241t-337 87t-336.5 -87t-248.5 -241t-93 -338zM502 696q0 162 112.5 275.5t268.5 113.5q88 0 162.5 -36.5t121.5 -98.5v117h72v-252h-70q-26 89 -103.5 144t-178.5 55q-129 0 -219 -93t-90 -225q0 -133 90 -226 t219 -93q101 0 178.5 54.5t103.5 143.5h80q-29 -119 -129.5 -194.5t-230.5 -75.5q-160 0 -273.5 113.5t-113.5 277.5z" />
<glyph unicode="&#xaa;" horiz-adv-x="794" d="M70 967q0 79 60.5 125.5t180.5 46.5h256v37q0 188 -196 188q-71 0 -128 -33.5t-67 -87.5h-70q8 56 48.5 98t97 62t119.5 20q128 0 197 -63.5t69 -183.5h-2v-324h121v-64h-189v66q-113 -84 -245 -84q-113 0 -182.5 53.5t-69.5 143.5zM137 969q0 -63 50.5 -99t138.5 -36 q138 0 241 90v157h-260q-86 0 -128 -31.5t-42 -80.5z" />
<glyph unicode="&#xab;" horiz-adv-x="856" d="M106 516l246 299h62v-33l-211 -266l211 -266v-33h-62zM416 516l246 299h61v-33l-211 -266l211 -266v-33h-61z" />
<glyph unicode="&#xad;" horiz-adv-x="1009" d="M176 520h660v90h-660v-90z" />
<glyph unicode="&#xae;" horiz-adv-x="1122" d="M94 967q0 127 63.5 232t170.5 163.5t233 58.5t233.5 -58.5t171.5 -163.5t64 -232t-64 -232t-171.5 -164t-233.5 -59t-233 59t-170.5 164t-63.5 232zM145 967q0 -112 57.5 -206.5t153.5 -148t205 -53.5t204.5 53.5t152.5 148t57 206.5t-57 206.5t-152.5 148.5t-204.5 54 t-205 -54t-153.5 -148.5t-57.5 -206.5zM360 782v45h66v306h-66v45h238q63 0 106.5 -37.5t43.5 -96.5q0 -50 -29 -84t-76 -45l72 -88h65v-45h-123v39l-67 88h-113v-127h-117zM477 958h121q40 0 68 23.5t28 62.5q0 37 -28.5 61.5t-67.5 24.5h-121v-172z" />
<glyph unicode="&#xaf;" d="M205 92l604 604l-604 602l51 52l604 -602l602 602l51 -52l-602 -602l602 -604l-51 -51l-602 604l-604 -604z" />
<glyph unicode="&#xb0;" horiz-adv-x="796" d="M63 1094q0 140 97 234.5t239 94.5t239 -94.5t97 -234.5q0 -138 -97 -233t-239 -95t-239 95t-97 233zM137 1094q0 -106 76.5 -181t185.5 -75q108 0 185.5 75.5t77.5 180.5q0 108 -77.5 184t-185.5 76q-109 0 -185.5 -75.5t-76.5 -184.5z" />
<glyph unicode="&#xb1;" horiz-adv-x="1429" d="M254 102v88h924v-88h-924zM254 664v88h416v348h92v-348h416v-88h-416v-347h-92v347h-416z" />
<glyph unicode="&#xb2;" d="M205 92l604 604l-604 602l51 52l604 -602l602 602l51 -52l-602 -602l602 -604l-51 -51l-602 604l-604 -604z" />
<glyph unicode="&#xb3;" d="M205 92l604 604l-604 602l51 52l604 -602l602 602l51 -52l-602 -602l602 -604l-51 -51l-602 604l-604 -604z" />
<glyph unicode="&#xb4;" d="M205 92l604 604l-604 602l51 52l604 -602l602 602l51 -52l-602 -602l602 -604l-51 -51l-602 604l-604 -604z" />
<glyph unicode="&#xb6;" horiz-adv-x="1593" d="M90 946q0 98 38 182.5t104 142t155.5 90t190.5 32.5h946v-84h-228v-1637h-94v1637h-323v-1637h-97v822h-204q-136 0 -246.5 55.5t-176 159.5t-65.5 237zM184 946q0 -163 113 -264.5t281 -101.5h204v729h-204q-167 0 -280.5 -101.5t-113.5 -261.5z" />
<glyph unicode="&#xb7;" horiz-adv-x="331" d="M90 543q0 31 22 52t54 21q31 0 53.5 -21.5t22.5 -51.5q0 -32 -22.5 -53t-53.5 -21q-32 0 -54 21t-22 53z" />
<glyph unicode="&#xb8;" d="M205 92l604 604l-604 602l51 52l604 -602l602 602l51 -52l-602 -602l602 -604l-51 -51l-602 604l-604 -604z" />
<glyph unicode="&#xb9;" d="M205 92l604 604l-604 602l51 52l604 -602l602 602l51 -52l-602 -602l602 -604l-51 -51l-602 604l-604 -604z" />
<glyph unicode="&#xba;" horiz-adv-x="796" d="M63 1094q0 140 97 234.5t239 94.5t239 -94.5t97 -234.5q0 -138 -97 -233t-239 -95t-239 95t-97 233zM127 1094q0 -110 79 -187.5t191 -77.5q113 0 192 77.5t79 187.5q0 112 -79 190t-192 78t-191.5 -78t-78.5 -190z" />
<glyph unicode="&#xbb;" horiz-adv-x="856" d="M133 217v33l211 266l-211 266v33h62l245 -299l-245 -299h-62zM442 217v33l211 266l-211 266v33h62l246 -299l-246 -299h-62z" />
<glyph unicode="&#xbc;" d="M205 92l604 604l-604 602l51 52l604 -602l602 602l51 -52l-602 -602l602 -604l-51 -51l-602 604l-604 -604z" />
<glyph unicode="&#xbd;" d="M205 92l604 604l-604 602l51 52l604 -602l602 602l51 -52l-602 -602l602 -604l-51 -51l-602 604l-604 -604z" />
<glyph unicode="&#xbe;" d="M205 92l604 604l-604 602l51 52l604 -602l602 602l51 -52l-602 -602l602 -604l-51 -51l-602 604l-604 -604z" />
<glyph unicode="&#xbf;" horiz-adv-x="1196" d="M197 111q0 176 121 293t315 120l2 215h82l10 -284h-74q-160 0 -263 -99t-103 -245q0 -143 101 -242.5t255 -99.5q119 0 212.5 69.5t117.5 181.5h94q-28 -151 -144 -242t-276 -91q-195 0 -322.5 122t-127.5 302zM598 1051q0 32 22.5 52.5t53.5 20.5q33 0 54.5 -20.5 t21.5 -52.5q0 -31 -22 -52.5t-54 -21.5q-31 0 -53.5 21.5t-22.5 52.5z" />
<glyph unicode="&#xc0;" d="M205 92l604 604l-604 602l51 52l604 -602l602 602l51 -52l-602 -602l602 -604l-51 -51l-602 604l-604 -604z" />
<glyph unicode="&#xc1;" d="M205 92l604 604l-604 602l51 52l604 -602l602 602l51 -52l-602 -602l602 -604l-51 -51l-602 604l-604 -604z" />
<glyph unicode="&#xc2;" d="M205 92l604 604l-604 602l51 52l604 -602l602 602l51 -52l-602 -602l602 -604l-51 -51l-602 604l-604 -604z" />
<glyph unicode="&#xc3;" d="M205 92l604 604l-604 602l51 52l604 -602l602 602l51 -52l-602 -602l602 -604l-51 -51l-602 604l-604 -604z" />
<glyph unicode="&#xc4;" d="M35 0v84h170l573 1225h-270v84h403l613 -1309h174v-84h-557v84h280l-184 397h-745l-185 -397h277v-84h-549zM530 563h668l-334 719zM608 1688q0 30 22.5 51.5t53.5 21.5t53.5 -21.5t22.5 -51.5q0 -32 -22.5 -54t-53.5 -22t-53.5 22t-22.5 54zM969 1688q0 31 22 52t53 21 t53.5 -21.5t22.5 -51.5q0 -32 -22.5 -54t-53.5 -22t-53 22t-22 54z" />
<glyph unicode="&#xc5;" d="M205 92l604 604l-604 602l51 52l604 -602l602 602l51 -52l-602 -602l602 -604l-51 -51l-602 604l-604 -604z" />
<glyph unicode="&#xc6;" horiz-adv-x="2324" d="M35 0v84h192l914 1225h-191v84h1243v-373h-88v285h-764v-568h609v-86h-609v-563h764v285h88v-373h-1175v84h229v401h-604l-299 -401h266v-84h-575zM705 569h542v731z" />
<glyph unicode="&#xc7;" d="M205 92l604 604l-604 602l51 52l604 -602l602 602l51 -52l-602 -602l602 -604l-51 -51l-602 604l-604 -604z" />
<glyph unicode="&#xc8;" d="M205 92l604 604l-604 602l51 52l604 -602l602 602l51 -52l-602 -602l602 -604l-51 -51l-602 604l-604 -604z" />
<glyph unicode="&#xc9;" d="M205 92l604 604l-604 602l51 52l604 -602l602 602l51 -52l-602 -602l602 -604l-51 -51l-602 604l-604 -604z" />
<glyph unicode="&#xca;" d="M205 92l604 604l-604 602l51 52l604 -602l602 602l51 -52l-602 -602l602 -604l-51 -51l-602 604l-604 -604z" />
<glyph unicode="&#xcb;" d="M205 92l604 604l-604 602l51 52l604 -602l602 602l51 -52l-602 -602l602 -604l-51 -51l-602 604l-604 -604z" />
<glyph unicode="&#xcc;" d="M205 92l604 604l-604 602l51 52l604 -602l602 602l51 -52l-602 -602l602 -604l-51 -51l-602 604l-604 -604z" />
<glyph unicode="&#xcd;" d="M205 92l604 604l-604 602l51 52l604 -602l602 602l51 -52l-602 -602l602 -604l-51 -51l-602 604l-604 -604z" />
<glyph unicode="&#xce;" d="M205 92l604 604l-604 602l51 52l604 -602l602 602l51 -52l-602 -602l602 -604l-51 -51l-602 604l-604 -604z" />
<glyph unicode="&#xcf;" d="M205 92l604 604l-604 602l51 52l604 -602l602 602l51 -52l-602 -602l602 -604l-51 -51l-602 604l-604 -604z" />
<glyph unicode="&#xd0;" d="M205 92l604 604l-604 602l51 52l604 -602l602 602l51 -52l-602 -602l602 -604l-51 -51l-602 604l-604 -604z" />
<glyph unicode="&#xd1;" d="M205 92l604 604l-604 602l51 52l604 -602l602 602l51 -52l-602 -602l602 -604l-51 -51l-602 604l-604 -604z" />
<glyph unicode="&#xd2;" d="M205 92l604 604l-604 602l51 52l604 -602l602 602l51 -52l-602 -602l602 -604l-51 -51l-602 604l-604 -604z" />
<glyph unicode="&#xd3;" d="M205 92l604 604l-604 602l51 52l604 -602l602 602l51 -52l-602 -602l602 -604l-51 -51l-602 604l-604 -604z" />
<glyph unicode="&#xd4;" d="M205 92l604 604l-604 602l51 52l604 -602l602 602l51 -52l-602 -602l602 -604l-51 -51l-602 604l-604 -604z" />
<glyph unicode="&#xd5;" d="M205 92l604 604l-604 602l51 52l604 -602l602 602l51 -52l-602 -602l602 -604l-51 -51l-602 604l-604 -604z" />
<glyph unicode="&#xd6;" horiz-adv-x="1683" d="M117 696q0 197 97 364t264 264t364 97t364 -97t264 -264t97 -364t-97 -364t-264 -264t-364 -97t-364 97t-264 264t-97 364zM213 696q0 -129 49.5 -246.5t133.5 -202.5t200.5 -135.5t245.5 -50.5q172 0 316.5 85t228 231.5t83.5 318.5t-83.5 318.5t-228 231.5t-316.5 85 q-129 0 -245.5 -50.5t-200.5 -135.5t-133.5 -202.5t-49.5 -246.5zM582 1688q0 31 22 52t53 21t53.5 -21.5t22.5 -51.5q0 -32 -22.5 -54t-53.5 -22t-53 22t-22 54zM942 1688q0 30 22.5 51.5t53.5 21.5t53.5 -21.5t22.5 -51.5q0 -32 -22.5 -54t-53.5 -22t-53.5 22t-22.5 54z " />
<glyph unicode="&#xd7;" horiz-adv-x="1345" d="M274 313l336 336l-336 336l62 62l336 -336l336 336l61 -62l-336 -336l336 -336l-61 -61l-336 336l-336 -336z" />
<glyph unicode="&#xd8;" horiz-adv-x="1683" d="M117 696q0 197 97 364t264 264t364 97q253 0 450 -157l129 153l64 -51l-131 -156q100 -100 156.5 -233t56.5 -281q0 -197 -97 -364t-264 -264t-364 -97q-229 0 -416 131l-113 -133l-63 51l110 134q-114 100 -178.5 241t-64.5 301zM213 696q0 -138 55 -260.5t152 -212.5 l813 971q-169 137 -391 137q-129 0 -245.5 -50.5t-200.5 -135.5t-133.5 -202.5t-49.5 -246.5zM483 174q157 -113 359 -113q172 0 316.5 85t228 231.5t83.5 318.5q0 127 -46.5 241t-131.5 202z" />
<glyph unicode="&#xd9;" d="M205 92l604 604l-604 602l51 52l604 -602l602 602l51 -52l-602 -602l602 -604l-51 -51l-602 604l-604 -604z" />
<glyph unicode="&#xda;" d="M205 92l604 604l-604 602l51 52l604 -602l602 602l51 -52l-602 -602l602 -604l-51 -51l-602 604l-604 -604z" />
<glyph unicode="&#xdb;" d="M205 92l604 604l-604 602l51 52l604 -602l602 602l51 -52l-602 -602l602 -604l-51 -51l-602 604l-604 -604z" />
<glyph unicode="&#xdc;" horiz-adv-x="1679" d="M31 1309v84h551v-84h-230v-731q0 -146 60 -264.5t172.5 -187.5t255.5 -69q215 0 350 149t135 372v731h-227v84h551v-84h-230v-731q0 -265 -160.5 -437t-418.5 -172q-172 0 -305 79t-205 217.5t-72 312.5v731h-227zM584 1688q0 31 22 52t53 21t53.5 -21.5t22.5 -51.5 q0 -32 -22.5 -54t-53.5 -22t-53 22t-22 54zM944 1688q0 30 22.5 51.5t53.5 21.5t53.5 -21.5t22.5 -51.5q0 -32 -22.5 -54t-53.5 -22t-53.5 22t-22.5 54z" />
<glyph unicode="&#xdd;" d="M205 92l604 604l-604 602l51 52l604 -602l602 602l51 -52l-602 -602l602 -604l-51 -51l-602 604l-604 -604z" />
<glyph unicode="&#xde;" horiz-adv-x="1409" d="M117 0v84h227v1225h-227v84h321v-234h373q236 0 381 -124t145 -326q0 -205 -147.5 -331t-386.5 -126h-365v-252h-321zM438 338h371q194 0 313 102t119 269q0 163 -119 262.5t-313 99.5h-371v-733z" />
<glyph unicode="&#xdf;" horiz-adv-x="1398" d="M113 0v84h206v1147q0 141 87.5 227t228.5 86v-88q-101 0 -162 -62t-61 -163v-297h809v-62l-2 -2l-373 -464h61q184 0 310 -119t126 -295q0 -123 -65 -222.5t-172 -153.5t-232 -54q-121 0 -235.5 50t-189.5 136l57 62q65 -74 163.5 -120t200.5 -46q157 0 269 100.5 t112 249.5q0 141 -100 235.5t-248 94.5h-192v47l381 477h-680v-848h-299z" />
<glyph unicode="&#xe0;" d="M205 92l604 604l-604 602l51 52l604 -602l602 602l51 -52l-602 -602l602 -604l-51 -51l-602 604l-604 -604z" />
<glyph unicode="&#xe1;" d="M205 92l604 604l-604 602l51 52l604 -602l602 602l51 -52l-602 -602l602 -604l-51 -51l-602 604l-604 -604z" />
<glyph unicode="&#xe2;" d="M205 92l604 604l-604 602l51 52l604 -602l602 602l51 -52l-602 -602l602 -604l-51 -51l-602 604l-604 -604z" />
<glyph unicode="&#xe3;" d="M205 92l604 604l-604 602l51 52l604 -602l602 602l51 -52l-602 -602l602 -604l-51 -51l-602 604l-604 -604z" />
<glyph unicode="&#xe4;" horiz-adv-x="1376" d="M111 467q0 134 65.5 247.5t178.5 180t247 66.5q219 0 365 -156v129h299v-86h-207v-764h207v-84h-299v127q-146 -156 -365 -156q-134 0 -247 66.5t-178.5 180.5t-65.5 249zM203 467q0 -170 119 -292t288 -122q214 0 357 185v456q-143 185 -357 185q-169 0 -288 -121 t-119 -291zM389 1294q0 31 22.5 52.5t53.5 21.5t53.5 -21.5t22.5 -52.5q0 -32 -22.5 -53.5t-53.5 -21.5t-53.5 21.5t-22.5 53.5zM750 1294q0 31 22 52.5t53 21.5t53.5 -21.5t22.5 -52.5q0 -32 -22.5 -53.5t-53.5 -21.5t-53 21.5t-22 53.5z" />
<glyph unicode="&#xe5;" d="M205 92l604 604l-604 602l51 52l604 -602l602 602l51 -52l-602 -602l602 -604l-51 -51l-602 604l-604 -604z" />
<glyph unicode="&#xe6;" horiz-adv-x="1935" d="M102 260q0 118 90.5 182t245.5 64h439q0 169 -92.5 273t-249.5 104q-110 0 -190 -51t-95 -132h-92q19 124 127.5 194.5t251.5 70.5q144 0 247 -70.5t148 -196.5q62 120 178 191.5t256 71.5q201 0 330 -140.5t131 -355.5v-33l-15 4v-4h-843q11 -161 123.5 -270t285.5 -109 q107 0 194 46.5t124 123.5h100q-43 -114 -157.5 -183t-262.5 -69q-131 0 -238 56t-173 153q-91 -97 -213 -153t-265 -56q-174 0 -279.5 79.5t-105.5 209.5zM193 262q0 -94 80.5 -151.5t220.5 -57.5q257 0 430 197q-39 79 -45 182h-443q-121 0 -182 -45.5t-61 -124.5z M969 508h768q-12 163 -114 269t-257 106q-158 0 -270.5 -109t-126.5 -266z" />
<glyph unicode="&#xe7;" d="M205 92l604 604l-604 602l51 52l604 -602l602 602l51 -52l-602 -602l602 -604l-51 -51l-602 604l-604 -604z" />
<glyph unicode="&#xe8;" d="M205 92l604 604l-604 602l51 52l604 -602l602 602l51 -52l-602 -602l602 -604l-51 -51l-602 604l-604 -604z" />
<glyph unicode="&#xe9;" d="M205 92l604 604l-604 602l51 52l604 -602l602 602l51 -52l-602 -602l602 -604l-51 -51l-602 604l-604 -604z" />
<glyph unicode="&#xea;" d="M205 92l604 604l-604 602l51 52l604 -602l602 602l51 -52l-602 -602l602 -604l-51 -51l-602 604l-604 -604z" />
<glyph unicode="&#xeb;" d="M205 92l604 604l-604 602l51 52l604 -602l602 602l51 -52l-602 -602l602 -604l-51 -51l-602 604l-604 -604z" />
<glyph unicode="&#xec;" d="M205 92l604 604l-604 602l51 52l604 -602l602 602l51 -52l-602 -602l602 -604l-51 -51l-602 604l-604 -604z" />
<glyph unicode="&#xed;" d="M205 92l604 604l-604 602l51 52l604 -602l602 602l51 -52l-602 -602l602 -604l-51 -51l-602 604l-604 -604z" />
<glyph unicode="&#xee;" d="M205 92l604 604l-604 602l51 52l604 -602l602 602l51 -52l-602 -602l602 -604l-51 -51l-602 604l-604 -604z" />
<glyph unicode="&#xef;" d="M205 92l604 604l-604 602l51 52l604 -602l602 602l51 -52l-602 -602l602 -604l-51 -51l-602 604l-604 -604z" />
<glyph unicode="&#xf0;" horiz-adv-x="1230" d="M115 467q0 136 66 249.5t181.5 179t253.5 65.5q112 0 209.5 -50.5t165.5 -138.5q-87 266 -325 449l-310 -115l-24 68l260 96q-125 79 -268 123l104 41q129 -41 256 -129l207 75l24 -67l-163 -62q167 -138 265.5 -340.5t98.5 -443.5q0 -211 -145 -354.5t-355 -143.5 q-138 0 -253.5 66t-181.5 180.5t-66 251.5zM207 467q0 -171 119 -292.5t290 -121.5q170 0 289 121.5t119 292.5q0 169 -119 289.5t-289 120.5q-171 0 -290 -120t-119 -290z" />
<glyph unicode="&#xf1;" d="M205 92l604 604l-604 602l51 52l604 -602l602 602l51 -52l-602 -602l602 -604l-51 -51l-602 604l-604 -604z" />
<glyph unicode="&#xf2;" d="M205 92l604 604l-604 602l51 52l604 -602l602 602l51 -52l-602 -602l602 -604l-51 -51l-602 604l-604 -604z" />
<glyph unicode="&#xf3;" d="M205 92l604 604l-604 602l51 52l604 -602l602 602l51 -52l-602 -602l602 -604l-51 -51l-602 604l-604 -604z" />
<glyph unicode="&#xf4;" d="M205 92l604 604l-604 602l51 52l604 -602l602 602l51 -52l-602 -602l602 -604l-51 -51l-602 604l-604 -604z" />
<glyph unicode="&#xf5;" d="M205 92l604 604l-604 602l51 52l604 -602l602 602l51 -52l-602 -602l602 -604l-51 -51l-602 604l-604 -604z" />
<glyph unicode="&#xf6;" horiz-adv-x="1216" d="M111 467q0 207 145 350.5t354 143.5q136 0 250.5 -65.5t181 -179t66.5 -249.5q0 -137 -66.5 -251.5t-181 -180.5t-250.5 -66q-209 0 -354 144.5t-145 353.5zM203 467q0 -171 118.5 -292.5t288.5 -121.5q168 0 286 121.5t118 292.5q0 169 -118 289.5t-286 120.5 q-170 0 -288.5 -120.5t-118.5 -289.5zM354 1294q0 31 22.5 52.5t53.5 21.5t53.5 -21.5t22.5 -52.5q0 -32 -22.5 -53.5t-53.5 -21.5t-53.5 21.5t-22.5 53.5zM715 1294q0 31 22.5 52.5t53.5 21.5t53 -21.5t22 -52.5q0 -32 -22 -53.5t-53 -21.5t-53.5 21.5t-22.5 53.5z" />
<glyph unicode="&#xf7;" horiz-adv-x="1429" d="M254 610v86h924v-86h-924zM643 279q0 29 20.5 49t49.5 20q31 0 51 -20t20 -49t-20 -49.5t-51 -20.5q-29 0 -49.5 20.5t-20.5 49.5zM643 1028q0 30 20 50t50 20q31 0 51 -19.5t20 -50.5q0 -29 -20 -48t-51 -19q-30 0 -50 19t-20 48z" />
<glyph unicode="&#xf8;" horiz-adv-x="1216" d="M111 467q0 207 145 350.5t354 143.5q148 0 277 -82l67 82l54 -48l-66 -77q78 -69 122 -165t44 -204q0 -137 -66.5 -251.5t-181 -180.5t-250.5 -66q-170 0 -305 101l-74 -88l-55 47l76 90q-141 141 -141 348zM203 467q0 -160 106 -279l520 623q-101 66 -219 66 q-170 0 -288.5 -120.5t-118.5 -289.5zM362 139q110 -86 248 -86q168 0 286 121.5t118 292.5q0 88 -33.5 165t-93.5 134z" />
<glyph unicode="&#xf9;" d="M205 92l604 604l-604 602l51 52l604 -602l602 602l51 -52l-602 -602l602 -604l-51 -51l-602 604l-604 -604z" />
<glyph unicode="&#xfa;" d="M205 92l604 604l-604 602l51 52l604 -602l602 602l51 -52l-602 -602l602 -604l-51 -51l-602 604l-604 -604z" />
<glyph unicode="&#xfb;" d="M205 92l604 604l-604 602l51 52l604 -602l602 602l51 -52l-602 -602l602 -604l-51 -51l-602 604l-604 -604z" />
<glyph unicode="&#xfc;" horiz-adv-x="1419" d="M55 848v86h299v-549q0 -155 86.5 -243.5t225.5 -88.5q107 0 204 50.5t158 140.5v604h-207v86h299v-850h207v-84h-299v129q-67 -76 -164 -118t-211 -42q-174 0 -282.5 111.5t-108.5 302.5v465h-207zM444 1294q0 31 22.5 52.5t53.5 21.5t53.5 -21.5t22.5 -52.5 q0 -32 -22.5 -53.5t-53.5 -21.5t-53.5 21.5t-22.5 53.5zM805 1294q0 31 22.5 52.5t53.5 21.5t53 -21.5t22 -52.5q0 -32 -22 -53.5t-53 -21.5t-53.5 21.5t-22.5 53.5z" />
<glyph unicode="&#xfd;" d="M205 92l604 604l-604 602l51 52l604 -602l602 602l51 -52l-602 -602l602 -604l-51 -51l-602 604l-604 -604z" />
<glyph unicode="&#xfe;" horiz-adv-x="1376" d="M113 -375h206v1684h-206v84h299v-588q146 156 366 156q202 0 346 -145t144 -349q0 -135 -65.5 -249t-178.5 -180.5t-246 -66.5q-220 0 -366 156v-586h-299v84zM412 240q139 -187 356 -187q112 0 206.5 56.5t148 151.5t53.5 206q0 170 -118.5 291t-289.5 121 q-217 0 -356 -187v-452z" />
<glyph unicode="&#xff;" d="M205 92l604 604l-604 602l51 52l604 -602l602 602l51 -52l-602 -602l602 -604l-51 -51l-602 604l-604 -604z" />
<glyph unicode="&#x152;" horiz-adv-x="2193" d="M117 696q0 150 59.5 278t167.5 221t267.5 145.5t351.5 52.5h1101v-88h-2v-285h-88v285h-764v-568h611v-86h-611v-563h764v285h88v-285h2v-88h-1101q-192 0 -351.5 52.5t-267.5 145t-167.5 220.5t-59.5 278zM213 696q0 -131 51.5 -242.5t146.5 -192t237 -126t315 -45.5 h153v1213h-153q-346 0 -548 -169.5t-202 -437.5z" />
<glyph unicode="&#x153;" horiz-adv-x="2086" d="M111 467q0 207 145 350.5t354 143.5q150 0 272 -78.5t181 -208.5q60 130 179 208.5t267 78.5q201 0 330 -140.5t131 -355.5v-33l-14 4v-4h-844q11 -161 124 -270t286 -109q107 0 193.5 46.5t123.5 123.5h100q-43 -114 -157 -183t-262 -69q-156 0 -277.5 78.5 t-179.5 208.5q-59 -131 -181 -210t-272 -79q-209 0 -354 144.5t-145 353.5zM203 467q0 -171 118.5 -292.5t288.5 -121.5q168 0 286 121.5t118 292.5q0 169 -118 289.5t-286 120.5q-170 0 -288.5 -120.5t-118.5 -289.5zM1112 508h768q-12 163 -114 269t-257 106 q-158 0 -270.5 -109t-126.5 -266z" />
<glyph unicode="&#x178;" d="M205 92l604 604l-604 602l51 52l604 -602l602 602l51 -52l-602 -602l602 -604l-51 -51l-602 604l-604 -604z" />
<glyph unicode="&#x2c6;" d="M205 92l604 604l-604 602l51 52l604 -602l602 602l51 -52l-602 -602l602 -604l-51 -51l-602 604l-604 -604z" />
<glyph unicode="&#x2dc;" d="M205 92l604 604l-604 602l51 52l604 -602l602 602l51 -52l-602 -602l602 -604l-51 -51l-602 604l-604 -604z" />
<glyph unicode="&#x2000;" horiz-adv-x="880" />
<glyph unicode="&#x2001;" horiz-adv-x="1761" />
<glyph unicode="&#x2002;" horiz-adv-x="880" />
<glyph unicode="&#x2003;" horiz-adv-x="1761" />
<glyph unicode="&#x2004;" horiz-adv-x="587" />
<glyph unicode="&#x2005;" horiz-adv-x="440" />
<glyph unicode="&#x2006;" horiz-adv-x="293" />
<glyph unicode="&#x2007;" horiz-adv-x="293" />
<glyph unicode="&#x2008;" horiz-adv-x="220" />
<glyph unicode="&#x2009;" horiz-adv-x="352" />
<glyph unicode="&#x200a;" horiz-adv-x="97" />
<glyph unicode="&#x2010;" horiz-adv-x="1009" d="M176 520h660v90h-660v-90z" />
<glyph unicode="&#x2011;" horiz-adv-x="1009" d="M176 520h660v90h-660v-90z" />
<glyph unicode="&#x2012;" horiz-adv-x="1009" d="M176 520h660v90h-660v-90z" />
<glyph unicode="&#x2013;" horiz-adv-x="1368" d="M176 520h1018v92h-1018v-92z" />
<glyph unicode="&#x2014;" horiz-adv-x="1867" d="M176 520h1516v92h-1516v-92z" />
<glyph unicode="&#x2018;" horiz-adv-x="350" d="M57 1032q0 19 23 78l113 283h67l-104 -297q53 -16 53 -64q0 -31 -22.5 -52.5t-53.5 -21.5t-53.5 21.5t-22.5 52.5z" />
<glyph unicode="&#x2019;" horiz-adv-x="382" d="M90 967l105 297q-54 16 -54 63q0 31 22.5 52.5t53.5 21.5t53.5 -21.5t22.5 -52.5q0 -19 -23 -78l-112 -282h-68z" />
<glyph unicode="&#x201a;" horiz-adv-x="382" d="M90 -303l105 297q-54 16 -54 63q0 31 22.5 52.5t53.5 21.5t53.5 -21.5t22.5 -52.5q0 -18 -23 -77l-112 -283h-68z" />
<glyph unicode="&#x201c;" horiz-adv-x="690" d="M90 1032q0 19 23 78l112 283h68l-105 -297q54 -16 54 -64q0 -31 -22.5 -52.5t-53.5 -21.5t-53.5 21.5t-22.5 52.5zM397 1032q0 19 23 78l112 283h68l-104 -297q53 -16 53 -64q0 -31 -22.5 -52.5t-53.5 -21.5t-53.5 21.5t-22.5 52.5z" />
<glyph unicode="&#x201d;" horiz-adv-x="692" d="M90 975l105 297q-54 16 -54 63q0 31 22.5 52.5t53.5 21.5t53.5 -21.5t22.5 -52.5q0 -19 -23 -78l-112 -282h-68zM401 975l105 297q-53 16 -53 63q0 31 22 52.5t53 21.5t53.5 -21.5t22.5 -52.5q0 -22 -22 -78l-113 -282h-68z" />
<glyph unicode="&#x201e;" horiz-adv-x="694" d="M90 -303l105 297q-54 16 -54 63q0 31 22.5 52.5t53.5 21.5t53.5 -21.5t22.5 -52.5q0 -18 -23 -77l-112 -283h-68zM401 -303l105 297q-53 16 -53 63q0 31 22 52.5t53 21.5t53.5 -21.5t22.5 -52.5q0 -21 -22 -77l-113 -283h-68z" />
<glyph unicode="&#x2022;" horiz-adv-x="636" d="M102 608q0 88 64.5 151.5t152.5 63.5t153 -64t65 -151q0 -86 -65 -150.5t-153 -64.5t-152.5 64.5t-64.5 150.5z" />
<glyph unicode="&#x2026;" horiz-adv-x="1210" d="M90 57q0 31 22 52.5t54 21.5q31 0 53.5 -21.5t22.5 -52.5q0 -32 -22.5 -52.5t-53.5 -20.5q-33 0 -54.5 20.5t-21.5 52.5zM526 57q0 31 22 52.5t54 21.5q31 0 53.5 -21.5t22.5 -52.5q0 -32 -22.5 -52.5t-53.5 -20.5q-33 0 -54.5 20.5t-21.5 52.5zM971 57q0 31 22 52.5 t54 21.5q31 0 53 -21.5t22 -52.5q0 -32 -22 -52.5t-53 -20.5q-33 0 -54.5 20.5t-21.5 52.5z" />
<glyph unicode="&#x202f;" horiz-adv-x="352" />
<glyph unicode="&#x2039;" horiz-adv-x="546" d="M106 516l246 299h62v-33l-211 -266l211 -266v-33h-62z" />
<glyph unicode="&#x203a;" horiz-adv-x="546" d="M133 217v33l211 266l-211 266v33h62l245 -299l-245 -299h-62z" />
<glyph unicode="&#x205f;" horiz-adv-x="440" />
<glyph unicode="&#x20ac;" horiz-adv-x="1810" d="M117 492v73h186q-12 64 -12 131q0 54 6 103h-180v73h194q61 240 256.5 394.5t448.5 154.5q188 0 337.5 -78t229.5 -215v265h92v-463h-94q-46 180 -198 289.5t-363 109.5q-216 0 -383 -127.5t-223 -329.5h749l-18 -73h-748q-8 -44 -8 -103q0 -66 12 -131h684l-18 -73h-645 q64 -191 227 -310t371 -119q210 0 360.5 109.5t196.5 290.5h100q-52 -219 -230.5 -355.5t-426.5 -136.5q-247 0 -440.5 146t-260.5 375h-202z" />
<glyph unicode="&#x2122;" horiz-adv-x="1583" d="M74 1208v185h567v-185h-59v127h-193v-489h119v-51h-299v51h119v489h-195v-127h-59zM705 795v51h96v495h-96v52h149l254 -426l254 426h147v-52h-92v-495h92v-51h-252v51h99v422l-230 -385h-34l-232 389l2 -426h94v-51h-251z" />
<glyph unicode="&#x25fc;" horiz-adv-x="931" d="M0 0v932h932v-932h-932z" />
<glyph unicode="&#xfb03;" horiz-adv-x="2236" d="M20 848v86h283v162q0 223 112 337.5t320 114.5q173 0 387 -125q93 125 277 125q84 0 142.5 -11.5t145.5 -38.5q4 -2 6.5 -2.5t7 -2l7.5 -2.5l-18 -78q-66 20 -93.5 27t-80 14.5t-111.5 7.5q-121 0 -192.5 -74.5t-71.5 -211.5v-242h794v-850h205v-84h-506v84h209v764h-702 v-764h274v-84h-573v84h207v764h-654v-764h275v-84h-574v84h207v764h-283zM395 934h654v242q0 94 28 167q-179 119 -338 119q-173 0 -258.5 -90.5t-85.5 -275.5v-162z" />
<glyph unicode="&#xfb04;" horiz-adv-x="2195" d="M20 848v86h283v162q0 223 112 337.5t320 114.5q177 0 406 -137q110 137 340 137q169 0 360 -110h53v-1354h205v-84h-506v84h209v1274q-166 104 -317 104q-173 0 -258.5 -90.5t-85.5 -275.5v-162h393v-86h-393v-764h274v-84h-573v84h207v764h-654v-764h275v-84h-574v84 h207v764h-283zM395 934h654v162q0 139 45 237q-195 129 -355 129q-173 0 -258.5 -90.5t-85.5 -275.5v-162z" />
</font>
</defs>
</svg>
